<svg width="24" height="25" viewBox="0 0 24 25" fill="none" xmlns="http://www.w3.org/2000/svg">
<path d="M13.3871 12.4987L20.4183 4.11749C20.5362 3.97821 20.4371 3.7666 20.2549 3.7666H18.1174C17.9916 3.7666 17.871 3.82285 17.788 3.91928L11.9889 10.8327L6.18977 3.91928C6.10941 3.82285 5.98887 3.7666 5.8603 3.7666H3.7228C3.54066 3.7666 3.44155 3.97821 3.55941 4.11749L10.5907 12.4987L3.55941 20.88C3.53301 20.911 3.51607 20.949 3.51061 20.9894C3.50514 21.0298 3.51138 21.0709 3.52859 21.1078C3.54579 21.1448 3.57323 21.176 3.60766 21.1978C3.64209 21.2196 3.68205 21.2311 3.7228 21.2309H5.8603C5.98619 21.2309 6.10673 21.1746 6.18977 21.0782L11.9889 14.1648L17.788 21.0782C17.8683 21.1746 17.9889 21.2309 18.1174 21.2309H20.2549C20.4371 21.2309 20.5362 21.0193 20.4183 20.88L13.3871 12.4987Z" fill="#242934"/>
</svg>
