<svg width="18" height="19" viewBox="0 0 18 19" fill="none" xmlns="http://www.w3.org/2000/svg">
<path d="M5.94612 2.90883H5.7854C5.87379 2.90883 5.94612 2.83651 5.94612 2.74812V2.90883H12.0533V2.74812C12.0533 2.83651 12.1256 2.90883 12.214 2.90883H12.0533V4.35526H13.4997V2.74812C13.4997 2.03896 12.9231 1.4624 12.214 1.4624H5.7854C5.07625 1.4624 4.49969 2.03896 4.49969 2.74812V4.35526H5.94612V2.90883ZM16.0711 4.35526H1.92826C1.57268 4.35526 1.2854 4.64254 1.2854 4.99812V5.64097C1.2854 5.72937 1.35772 5.80169 1.44611 5.80169H2.65951L3.15571 16.3084C3.18786 16.9934 3.75437 17.5338 4.43942 17.5338H13.56C14.247 17.5338 14.8115 16.9954 14.8437 16.3084L15.3399 5.80169H16.5533C16.6417 5.80169 16.714 5.72937 16.714 5.64097V4.99812C16.714 4.64254 16.4267 4.35526 16.0711 4.35526ZM13.4053 16.0874H4.59411L4.10795 5.80169H13.8914L13.4053 16.0874Z" fill="#242934"/>
</svg>
