<svg width="86" height="86" viewBox="0 0 86 86" fill="none" xmlns="http://www.w3.org/2000/svg">
<circle cx="43" cy="43" r="41" fill="#D9D9D9" stroke="#F6F6FD" stroke-width="4"/>
<path d="M42.8152 42.8162C46.0908 42.8162 48.7462 40.1608 48.7462 36.8851C48.7462 33.6095 46.0908 30.9541 42.8152 30.9541C39.5396 30.9541 36.8842 33.6095 36.8842 36.8851C36.8842 40.1608 39.5396 42.8162 42.8152 42.8162ZM46.7692 36.8851C46.7692 39.0689 44.9989 40.8392 42.8152 40.8392C40.6314 40.8392 38.8612 39.0689 38.8612 36.8851C38.8612 34.7014 40.6314 32.9311 42.8152 32.9311C44.9989 32.9311 46.7692 34.7014 46.7692 36.8851Z" fill="#707070"/>
<path d="M54.6773 52.7012C54.6773 54.6782 52.7003 54.6782 52.7003 54.6782H32.9301C32.9301 54.6782 30.9531 54.6782 30.9531 52.7012C30.9531 50.7242 32.9301 44.7932 42.8152 44.7932C52.7003 44.7932 54.6773 50.7242 54.6773 52.7012ZM52.7002 52.6943C52.6974 52.2064 52.3962 50.7449 51.0551 49.4038C49.7656 48.1143 47.3408 46.7702 42.8152 46.7702C38.2896 46.7702 35.8647 48.1143 34.5752 49.4038C33.2341 50.7449 32.933 52.2064 32.9301 52.6943H52.7002Z" fill="#707070"/>
</svg>
