<svg width="18" height="18" viewBox="0 0 18 18" fill="none" xmlns="http://www.w3.org/2000/svg">
<path d="M17.28 16.2533H0.72C0.32175 16.2533 0 16.5743 0 16.9716V17.7798C0 17.8786 0.081 17.9594 0.18 17.9594H17.82C17.919 17.9594 18 17.8786 18 17.7798V16.9716C18 16.5743 17.6783 16.2533 17.28 16.2533ZM3.27825 14.3675C3.32325 14.3675 3.36825 14.363 3.41325 14.3563L7.19775 13.6941C7.24275 13.6851 7.2855 13.6649 7.317 13.6312L16.8547 4.11495C16.8756 4.09418 16.8922 4.06951 16.9034 4.04236C16.9147 4.0152 16.9205 3.98608 16.9205 3.95668C16.9205 3.92728 16.9147 3.89817 16.9034 3.87101C16.8922 3.84385 16.8756 3.81919 16.8547 3.79842L13.1153 0.0651029C13.0725 0.0224493 13.0163 0 12.9555 0C12.8948 0 12.8385 0.0224493 12.7958 0.0651029L3.258 9.58135C3.22425 9.61502 3.204 9.65543 3.195 9.70033L2.53125 13.4763C2.50936 13.5966 2.51718 13.7203 2.55404 13.8369C2.59089 13.9535 2.65566 14.0593 2.74275 14.1453C2.89125 14.289 3.078 14.3675 3.27825 14.3675ZM4.79475 10.4524L12.9555 2.31227L14.6047 3.95781L6.444 12.0979L4.44375 12.4504L4.79475 10.4524Z" fill="$icons"/>
<path d="M4.5 9.54142L5.90625 10.9445M7.3125 12.3476L5.90625 10.9445M5.90625 10.9445L14.0625 2.80664" stroke="$icons" stroke-width="0.7"/>
</svg>
