<svg width="18" height="18" viewBox="0 0 18 18" fill="none" xmlns="http://www.w3.org/2000/svg">
<path d="M5.94613 2.40932H5.78542C5.87381 2.40932 5.94613 2.337 5.94613 2.24861V2.40932H12.0533V2.24861C12.0533 2.337 12.1256 2.40932 12.214 2.40932H12.0533V3.85575H13.4997V2.24861C13.4997 1.53945 12.9231 0.962891 12.214 0.962891H5.78542C5.07626 0.962891 4.4997 1.53945 4.4997 2.24861V3.85575H5.94613V2.40932ZM16.0711 3.85575H1.92827C1.57269 3.85575 1.28542 4.14302 1.28542 4.49861V5.14146C1.28542 5.22986 1.35774 5.30218 1.44613 5.30218H2.65952L3.15573 15.8089C3.18787 16.4939 3.75439 17.0343 4.43943 17.0343H13.56C14.247 17.0343 14.8115 16.4959 14.8437 15.8089L15.3399 5.30218H16.5533C16.6417 5.30218 16.714 5.22986 16.714 5.14146V4.49861C16.714 4.14302 16.4267 3.85575 16.0711 3.85575ZM13.4053 15.5879H4.59412L4.10796 5.30218H13.8914L13.4053 15.5879Z" fill="#999999"/>
</svg>
