<svg width="34" height="34" viewBox="0 0 34 34" fill="none" xmlns="http://www.w3.org/2000/svg">
<path d="M13.7114 7.83431C13.7114 11.3292 10.8687 14.1676 7.35569 14.1676C3.84267 14.1676 1 11.3292 1 7.83431C1 4.33937 3.84267 1.50098 7.35569 1.50098C10.8687 1.50098 13.7114 4.33937 13.7114 7.83431Z" stroke="#6362E7" stroke-width="2"/>
<path d="M32.1005 7.83431C32.1005 11.3292 29.2579 14.1676 25.7449 14.1676C22.2318 14.1676 19.3892 11.3292 19.3892 7.83431C19.3892 4.33937 22.2318 1.50098 25.7449 1.50098C29.2579 1.50098 32.1005 4.33937 32.1005 7.83431Z" stroke="#6362E7" stroke-width="2"/>
<path d="M13.7114 26.1663C13.7114 29.6613 10.8687 32.4997 7.35569 32.4997C3.84267 32.4997 1 29.6613 1 26.1663C1 22.6714 3.84267 19.833 7.35569 19.833C10.8687 19.833 13.7114 22.6714 13.7114 26.1663Z" stroke="#6362E7" stroke-width="2"/>
<path d="M32.1003 26.1663C32.1003 29.6613 29.2576 32.4997 25.7446 32.4997C22.2316 32.4997 19.3889 29.6613 19.3889 26.1663C19.3889 22.6714 22.2316 19.833 25.7446 19.833C29.2576 19.833 32.1003 22.6714 32.1003 26.1663Z" stroke="#6362E7" stroke-width="2"/>
</svg>
